# xmcd CD database file
#
# Track frame offsets:
#	150
#	14729
#	30044
#	42263
#	54599
#	65459
#	72352
#	79166
#	93019
#	99137
#	110959
#	126060
#	146718
#	159151
#	176514
#	194365
#	214165
#	230660
#	257523
#	281035
#	294398
#	306595
#	332637
#
# Disc length: 4782 seconds
#
# Revision: 0
# Processed by: cddbd v1.5.2PL0 Copyright (c) Steve Scherf et al.
# Submitted via: CDex 1.70beta2
#
DISCID=4b12ac17
DTITLE=Various Artist - Clarino Vol.5 bläsersound@bauerstudios
DYEAR=2006
DGENRE=Blasmusik
TTITLE0=Staatsorchester Stuttgart - Guglielmo Tell (Wilhelm Tell) (Gioachino Rossini)
TTITLE1=Landesblasorchester baden-Württemberg - Ritmico aus Dance Movements (Philip Sparke)
TTITLE2=Musikverein 1816 e.V. Krimbach - Nessun Dorma aus Turandot (Giacomo Puccini)
TTITLE3=Markgräfler Verbandsblasorchester - Aladdins Dream aus Aladdin Suite (Carl Nielsen)
TTITLE4=Brassband Bürgermusik Luzern - Star Trek - The Voyage Home (Leonard Rosenmann)
TTITLE5=Swiss Brass Consort - Bourée-Galiard (Jean-Baptiste Lully)
TTITLE6=Philharmonic Brass Luzern - Ragtime aus Suite Americana Nr.1 (Enrique Crespo)
TTITLE7=Slokar Quartet - Musica per Frederico Fellini
TTITLE8=Albireo Querflötenquartett - Scherzino aus Quartettino op.99 (Kurt hessenberg)
TTITLE9=ProFive - Menuetto-Allegro aus Quintett g-Moll op.56 Nr.2 (Franz Danzi)
TTITLE10=Quartetto con Affetto - Pari Intervallo (Arvo Pärt)
TTITLE11=Ernst Hutter and die Egerländer Musikanten - Für meine Freunde (Ernst Hutter)
TTITLE12=Bauernkapelle Mindersdorf - So klingst's in Böhmen (Freek Mestrini)
TTITLE13=D'Rhinwagges - D'Rhinwagges Polka (Charles Thomann)
TTITLE14=Stadtkapelle Offenburg -Ballade für Flügelhorn (Roland Kreid)
TTITLE15=Polizeimusikkorps Baden-Würtemberg - Ich gehör nur mir aus Elisabeth (Kunze, Levay)
TTITLE16=Cologne Saxophon Quintet - Fragile (Sumner)
TTITLE17=ProBrass - When Roland gets blue (Christian Mühlbacher)
TTITLE18=Jugend Jazz Orchester Baden-Württemberg - Naima (John Coltrane)
TTITLE19=Ralph Schweizer Big Band - Don't Get Around Much Anymore (Duke Ellington)
TTITLE20=Do X Memorial Big Band - Pee Wee's Back In Town (Howard Rowe)
TTITLE21=United States Air Forces in Europe Band - Sister Sadie (Horace Silver)
TTITLE22=Bob Brookmeyer - Tah-Dum (Bob Brookmeyer)
EXTD=YEAR: 2006
EXTT0=
EXTT1=
EXTT2=
EXTT3=
EXTT4=
EXTT5=
EXTT6=
EXTT7=
EXTT8=
EXTT9=
EXTT10=
EXTT11=
EXTT12=
EXTT13=
EXTT14=
EXTT15=
EXTT16=
EXTT17=
EXTT18=
EXTT19=
EXTT20=
EXTT21=
EXTT22=
PLAYORDER=
